<?xml version="1.0" encoding="utf-8"?>
<!-- Generator: Adobe Illustrator 24.0.1, SVG Export Plug-In . SVG Version: 6.00 Build 0)  -->
<svg version="1.1" id="Layer_1" xmlns="http://www.w3.org/2000/svg" xmlns:xlink="http://www.w3.org/1999/xlink" x="0px" y="0px"
	 viewBox="0 0 94 39" style="enable-background:new 0 0 94 39;" xml:space="preserve">
<style type="text/css">
	.st0{fill:none;stroke:#8C675B;stroke-miterlimit:10;}
	.st1{fill:none;stroke:#D88338;stroke-miterlimit:10;}
	.st2{fill:#FFFFFF;stroke:#345573;stroke-miterlimit:10;}
	.st3{fill:#746960;}
	.st4{font-family:'NanumSquareL';}
	.st5{font-size:5.0382px;}
	.st6{fill:#231F20;}
	.st7{font-family:'NanumSquareB';}
	.st8{font-size:11.5146px;}
</style>
<g>
	<path class="st0" d="M64.63,12.4v1.82h0.95V12.4c0-3.03,3.75-5.49,8.35-5.49c4.61,0,8.35,2.46,8.35,5.49v1.82h0.95V12.4
		c0-3.55-4.17-6.44-9.3-6.44C68.8,5.96,64.63,8.85,64.63,12.4z"/>
</g>
<g>
	<path class="st1" d="M39.94,12.4v1.82h0.95V12.4c0-2.98,5.44-5.49,11.87-5.49s11.87,2.51,11.87,5.49v1.82h0.95V12.4
		c0-3.61-5.63-6.44-12.82-6.44S39.94,8.79,39.94,12.4z"/>
</g>
<g>
	<path class="st2" d="M9.61,12.4v1.82h0.95V12.4c0-2.98,6.73-5.49,14.69-5.49s14.69,2.51,14.69,5.49v1.82h0.95V12.4
		c0-3.61-6.87-6.44-15.64-6.44S9.61,8.79,9.61,12.4z"/>
</g>
<text transform="matrix(1.1131 0 0 1 10.4206 31.9209)" class="st3 st4 st5">Museum of Korean literature</text>
<text transform="matrix(0.9461 0 0 1 9.6064 25.1084)" class="st6 st7 st8">한국현대문학관</text>
</svg>
